PathFileType	4	(X/Y/Z)	 s10c0102.trc
DataRate	CameraRate	NumFrames	NumMarkers	Units	OrigDataRate	OrigDataStartFrame	OrigNumFrames
200	200	4	50	mm	200	1751	2000
Frame#	Time	racr			lacr			c7			jug			rlel			rdr			llel			ldr			s2			lic			ric			lasi			rasi			rpsi			lpsi			rgt			lgt			rth1			rth2			rth3			rth4			rlfc			rmfc			rsh1			rsh2			rsh3			rsh4			rlmal			rmmal			rcal			rtoe			rmt5			lth1			lth2			lth4			lth3			llfc			lmfc			llmal			lmmal			lcal			lmt5			lsh1			lsh2			lsh3			lsh4			ltoe			SBIKE			LBIKE			RBIKE			
		X1	Y1	Z1	X2	Y2	Z2	X3	Y3	Z3	X4	Y4	Z4	X5	Y5	Z5	X6	Y6	Z6	X7	Y7	Z7	X8	Y8	Z8	X9	Y9	Z9	X10	Y10	Z10	X11	Y11	Z11	X12	Y12	Z12	X13	Y13	Z13	X14	Y14	Z14	X15	Y15	Z15	X16	Y16	Z16	X17	Y17	Z17	X18	Y18	Z18	X19	Y19	Z19	X20	Y20	Z20	X21	Y21	Z21	X22	Y22	Z22	X23	Y23	Z23	X24	Y24	Z24	X25	Y25	Z25	X26	Y26	Z26	X27	Y27	Z27	X28	Y28	Z28	X29	Y29	Z29	X30	Y30	Z30	X31	Y31	Z31	X32	Y32	Z32	X33	Y33	Z33	X34	Y34	Z34	X35	Y35	Z35	X36	Y36	Z36	X37	Y37	Z37	X38	Y38	Z38	X39	Y39	Z39	X40	Y40	Z40	X41	Y41	Z41	X42	Y42	Z42	X43	Y43	Z43	X44	Y44	Z44	X45	Y45	Z45	X46	Y46	Z46	X47	Y47	Z47	X48	Y48	Z48	X49	Y49	Z49	X50	Y50	Z50	
1751	8.7550	396.239942	1271.596257	26.381103	474.442069	1282.402436	-277.913546	390.715929	1330.992747	-145.651833	382.360283	1185.548459	-149.657527	466.901754	1014.339680	83.617263	636.956317	878.596822	-5.627290	513.157074	1041.576661	-430.796770	663.586651	888.012504	-371.687280	-106.049316	1091.423409	-230.116162	75.097319	1114.492735	-367.086840	42.875640	1137.915640	-72.346568	101.720383	1032.431931	-329.100660	61.100113	1056.896481	-83.846904	-80.595774	1152.794062	-176.665042	-58.478034	1156.741514	-288.006785	-35.609926	1031.105591	-22.258097	-24.194465	971.087950	-408.678289	99.630555	978.335075	-6.642260	184.346202	993.812485	-27.897257	264.378133	965.702025	-30.041968	183.970443	1028.813066	-41.397286	375.203913	963.287931	-57.342379	368.579414	943.350116	-184.955447	314.218237	870.226182	-27.512673	295.806949	784.304922	-38.767205	238.968142	719.678169	-41.110545	325.114167	771.913722	-60.209994	186.159678	617.071834	-52.155860	219.823910	621.194659	-129.437172	136.038844	626.047752	-101.423965	314.309020	460.163679	-85.158608	231.126615	493.029809	-29.789798	34.341253	861.656503	-423.610707	88.195779	794.692961	-411.914203	120.761349	810.311738	-402.370212	100.667341	706.948071	-402.428124	143.788831	608.838342	-385.334095	146.978999	600.492609	-267.802899	18.043451	253.113975	-376.986315	39.491459	250.735938	-300.183780	-33.354522	224.998632	-332.604116	129.958895	151.175720	-393.752094	77.181999	505.175051	-412.016335	83.231494	419.386780	-400.086648	42.356706	340.141187	-391.504111	114.806834	415.747179	-378.904785	214.340873	171.691916	-335.790867	-204.926416	833.888440	-224.721571	-78.309953	81.701930	-423.625987	-102.746661	80.526912	-24.399719	
1752	8.7600	395.849756	1271.443316	27.917067	475.383704	1281.701080	-276.162613	391.564789	1330.688906	-144.759846	382.532649	1185.274478	-148.470985	466.000349	1013.835468	83.872801	636.860536	878.774536	-5.577580	513.412723	1041.831054	-430.417658	663.566202	888.037379	-371.596000	-106.574937	1093.461972	-229.350919	75.231821	1115.514874	-366.976785	42.534625	1139.926259	-73.076574	101.144396	1033.406404	-329.297589	60.560572	1058.781040	-83.729857	-80.791306	1155.415104	-176.346925	-58.396960	1158.376406	-287.990691	-35.029194	1033.233804	-21.563665	-24.902325	972.392982	-408.807523	99.478460	980.123125	-6.888472	184.278748	994.516537	-28.796139	263.952006	965.560380	-31.361740	184.156278	1029.520155	-42.778160	374.537967	960.897888	-58.540839	366.400353	941.055986	-186.106229	312.786641	868.220977	-30.095887	296.259500	781.783059	-39.299253	240.567380	716.110757	-41.000762	326.097938	769.579222	-60.059090	189.746891	612.360598	-51.683159	223.105588	617.105558	-128.857175	138.898710	618.586550	-100.907133	324.287872	461.232390	-84.762618	239.784858	490.208037	-29.081235	34.600346	862.624079	-423.663636	89.119401	796.207152	-411.981363	121.612695	812.121997	-402.743836	102.495534	708.606632	-402.166191	146.909406	610.961759	-385.641324	150.321904	602.799435	-268.244737	11.287320	259.329611	-377.016843	32.234716	256.509135	-300.143915	-41.129035	232.557003	-332.845345	120.343722	154.940521	-394.133468	77.639339	509.252734	-412.355467	81.386383	423.565065	-400.141390	38.384262	345.260721	-391.625358	112.666534	419.062952	-378.769813	205.246138	172.921789	-336.155194	-205.103414	833.643424	-224.683273	-78.302131	81.715206	-423.650482	-102.746399	80.533344	-24.398472	
1753	8.7650	395.527258	1271.178705	29.136930	476.167029	1280.894905	-274.109065	392.287733	1330.310591	-143.953203	382.714088	1184.922893	-147.458649	465.185769	1013.275018	84.043999	636.801500	878.952832	-5.536309	513.687908	1042.095174	-430.051403	663.567474	888.052839	-371.543591	-106.313663	1095.755023	-229.320095	75.255971	1116.779630	-367.057402	42.185500	1141.904268	-73.782321	100.494906	1034.615574	-329.646375	60.264902	1060.290197	-84.013604	-80.722405	1157.795147	-176.086180	-58.441919	1160.186973	-287.880138	-34.436980	1035.154354	-21.052687	-25.666844	973.801018	-408.811189	99.071220	981.472616	-7.440324	183.930086	994.599489	-29.486220	263.190073	964.312404	-32.345513	184.228844	1029.418726	-44.206726	373.926592	957.550951	-60.039730	364.375627	937.399754	-186.871441	311.511013	865.067103	-32.181331	296.388454	777.742320	-40.173859	242.188548	711.335916	-40.774135	326.600669	765.792164	-60.521626	192.919384	606.581357	-51.121681	225.958141	611.843225	-128.113207	141.311835	610.230503	-100.011773	333.800339	461.788867	-84.217898	248.088541	486.834003	-28.294727	34.986601	863.537917	-423.843848	90.350366	797.887395	-412.012097	122.622509	814.274382	-403.131750	104.805803	710.459948	-401.811138	150.793148	613.311642	-385.683664	154.348595	605.142522	-268.266237	4.969571	266.335855	-377.216418	26.618307	262.129252	-300.437354	-48.340358	240.746752	-332.943350	111.105140	159.259160	-394.536306	78.824416	513.971401	-412.668832	80.115743	428.100309	-400.038439	35.051660	351.019549	-391.765943	111.171762	422.857636	-378.474419	196.422095	174.585894	-336.493387	-205.126324	833.672759	-224.663059	-78.346215	81.654158	-423.583551	-102.751682	80.541562	-24.410877	
1754	8.7700	395.404820	1270.901530	30.272521	476.944376	1280.170846	-272.598083	393.013946	1329.965827	-143.194646	382.926830	1184.606044	-146.532241	464.415522	1012.646105	84.177353	636.671131	879.177965	-5.398318	513.989040	1042.288262	-429.669816	663.571721	888.038589	-371.508995	-106.676132	1097.780015	-228.755601	75.141145	1118.076046	-367.123089	41.814655	1143.752224	-74.540074	99.606946	1036.086893	-329.970457	59.890701	1061.406986	-84.506788	-80.420405	1160.172820	-176.048846	-58.511939	1162.061809	-287.678609	-34.017046	1036.815576	-20.690031	-26.508148	975.339602	-408.897368	98.627467	982.385550	-8.132642	183.550114	994.019282	-30.721936	262.221016	962.657691	-33.258839	184.220192	1028.734207	-45.641239	373.119220	953.383038	-61.371358	362.390789	932.409668	-187.329609	310.355549	860.418240	-33.828099	296.882327	772.420906	-40.009851	243.563755	705.480717	-40.212004	327.266196	761.001661	-60.424720	195.925358	599.872555	-50.166958	228.544245	605.450467	-127.257655	143.406498	600.680302	-98.776583	342.762376	461.653729	-83.522009	256.009431	482.453578	-27.512917	35.413127	864.631421	-424.003770	91.770316	799.760447	-411.977882	123.849291	816.725623	-403.518139	107.855953	712.792138	-401.679182	155.459422	616.177783	-385.539992	159.023168	608.144489	-268.269831	-0.796884	273.984302	-377.440176	20.192388	269.439424	-300.400636	-54.866995	249.272161	-332.360398	102.228308	164.077819	-394.837493	80.650108	519.016587	-412.840373	79.501565	433.196587	-399.955864	32.314170	357.349295	-391.901711	110.141203	427.130106	-378.170534	187.795009	176.572876	-336.810770	-205.147751	833.670718	-224.702743	-78.302739	81.762109	-423.649743	-102.761045	80.548467	-24.394076	
